<?xml version="1.0" encoding="UTF-8"?>
<svg version="1.1" xmlns="http://www.w3.org/2000/svg" width="64" height="64">
<path d="M0 0 C0.886875 -0.00257812 1.77375 -0.00515625 2.6875 -0.0078125 C3.615625 -0.00007812 4.54375 0.00765625 5.5 0.015625 C6.428125 0.00789062 7.35625 0.00015625 8.3125 -0.0078125 C9.6428125 -0.00394531 9.6428125 -0.00394531 11 0 C11.8146875 0.00225586 12.629375 0.00451172 13.46875 0.00683594 C15.5 0.265625 15.5 0.265625 17.5 2.265625 C17.84979217 5.83881847 17.94357324 9.39257104 18.05859375 12.98046875 C18.27384221 16.1494797 18.27384221 16.1494797 19.59375 18.171875 C22.51897177 19.85028094 25.22218734 19.72104155 28.5625 19.828125 C35.29166667 20.05729167 35.29166667 20.05729167 37.5 22.265625 C37.75878906 24.296875 37.75878906 24.296875 37.765625 26.765625 C37.76949219 28.0959375 37.76949219 28.0959375 37.7734375 29.453125 C37.76570313 30.38125 37.75796875 31.309375 37.75 32.265625 C37.76160156 33.6578125 37.76160156 33.6578125 37.7734375 35.078125 C37.77085938 35.965 37.76828125 36.851875 37.765625 37.765625 C37.76336914 38.5803125 37.76111328 39.395 37.75878906 40.234375 C37.5 42.265625 37.5 42.265625 35.5 44.265625 C31.92680653 44.61541717 28.37305396 44.70919824 24.78515625 44.82421875 C21.6161453 45.03946721 21.6161453 45.03946721 19.59375 46.359375 C17.91534406 49.28459677 18.04458345 51.98781234 17.9375 55.328125 C17.70833333 62.05729167 17.70833333 62.05729167 15.5 64.265625 C13.46875 64.52441406 13.46875 64.52441406 11 64.53125 C10.113125 64.53382812 9.22625 64.53640625 8.3125 64.5390625 C7.384375 64.53132813 6.45625 64.52359375 5.5 64.515625 C4.571875 64.52335937 3.64375 64.53109375 2.6875 64.5390625 C1.3571875 64.53519531 1.3571875 64.53519531 0 64.53125 C-0.8146875 64.52899414 -1.629375 64.52673828 -2.46875 64.52441406 C-4.5 64.265625 -4.5 64.265625 -6.5 62.265625 C-6.84979217 58.69243153 -6.94357324 55.13867896 -7.05859375 51.55078125 C-7.27384221 48.3817703 -7.27384221 48.3817703 -8.59375 46.359375 C-11.51897177 44.68096906 -14.22218734 44.81020845 -17.5625 44.703125 C-24.29166667 44.47395833 -24.29166667 44.47395833 -26.5 42.265625 C-26.75878906 40.234375 -26.75878906 40.234375 -26.765625 37.765625 C-26.76820312 36.87875 -26.77078125 35.991875 -26.7734375 35.078125 C-26.76183594 33.6859375 -26.76183594 33.6859375 -26.75 32.265625 C-26.75773437 31.3375 -26.76546875 30.409375 -26.7734375 29.453125 C-26.77085938 28.56625 -26.76828125 27.679375 -26.765625 26.765625 C-26.76336914 25.9509375 -26.76111328 25.13625 -26.75878906 24.296875 C-26.5 22.265625 -26.5 22.265625 -24.5 20.265625 C-20.92680653 19.91583283 -17.37305396 19.82205176 -13.78515625 19.70703125 C-10.6161453 19.49178279 -10.6161453 19.49178279 -8.59375 18.171875 C-6.91534406 15.24665323 -7.04458345 12.54343766 -6.9375 9.203125 C-6.62470559 0.01834373 -6.62470559 0.01834373 0 0 Z " fill="#686A6A" stroke="#000000"   stroke-width="2" stroke-linejoin="round" 
stroke-linecap="round"
  transform="translate(26.5,-0.265625)"/>
</svg>



